<svg width="190" height="72" viewBox="0 0 190 72" fill="none" xmlns="http://www.w3.org/2000/svg">
<path d="M0.325 9.875V7H12.825V9.875H8.075V24H5.075V9.875H0.325ZM21.3342 13.75C20.9175 13.75 20.4425 13.85 19.9092 14.05C19.3758 14.25 18.7425 14.6417 18.0092 15.225V24H15.1342V5.5H18.0092V12.9C18.7758 12.25 19.4925 11.7833 20.1592 11.5C20.8258 11.2167 21.5092 11.075 22.2092 11.075C23.4258 11.075 24.3508 11.4667 24.9842 12.25C25.6175 13.0167 25.9342 14.1 25.9342 15.5V24H23.0592V15.85C23.0592 14.45 22.4842 13.75 21.3342 13.75ZM39.3588 23.275C38.4921 23.625 37.6755 23.875 36.9088 24.025C36.1421 24.175 35.4171 24.25 34.7338 24.25C32.8505 24.25 31.4255 23.7167 30.4588 22.65C29.4921 21.5833 29.0088 20.1667 29.0088 18.4V16.9C29.0088 15.7167 29.2255 14.6917 29.6588 13.825C30.0921 12.9583 30.7088 12.2833 31.5088 11.8C32.3088 11.3167 33.2505 11.075 34.3338 11.075C35.2171 11.075 36.0421 11.2583 36.8088 11.625C37.5921 11.975 38.2255 12.5333 38.7088 13.3C39.2088 14.05 39.4588 15.0167 39.4588 16.2C39.4588 16.55 39.4338 16.925 39.3838 17.325C39.3338 17.7083 39.2505 18.1167 39.1338 18.55H31.7838C31.8171 19.5833 32.0755 20.3583 32.5588 20.875C33.0421 21.3917 33.8171 21.65 34.8838 21.65C35.4505 21.65 36.0338 21.5833 36.6338 21.45C37.2505 21.3167 37.8838 21.1167 38.5338 20.85L39.3588 23.275ZM34.3338 13.5C33.5671 13.5 32.9671 13.75 32.5338 14.25C32.1171 14.7333 31.8755 15.4333 31.8088 16.35H36.6088C36.6255 16.2667 36.6338 16.1917 36.6338 16.125C36.6338 16.0417 36.6338 15.9667 36.6338 15.9C36.6338 15.1 36.4088 14.5 35.9588 14.1C35.5088 13.7 34.9671 13.5 34.3338 13.5Z" fill="black"/>
<path d="M3.29 64V40.2H10.535C12.3083 40.2 13.7083 40.4567 14.735 40.97C15.785 41.4833 16.5317 42.2067 16.975 43.14C17.4417 44.0733 17.675 45.17 17.675 46.43V47.41C17.675 49.2533 16.8817 50.665 15.295 51.645C16.415 52.0883 17.2667 52.73 17.85 53.57C18.4333 54.41 18.725 55.4133 18.725 56.58V57.56C18.725 58.8433 18.4917 59.975 18.025 60.955C17.5583 61.9117 16.7883 62.6583 15.715 63.195C14.6417 63.7317 13.2067 64 11.41 64H3.29ZM10.535 44.05H7.49V50H10.535C11.4683 50 12.1683 49.79 12.635 49.37C13.125 48.9267 13.37 48.3317 13.37 47.585V46.43C13.37 45.6833 13.125 45.1 12.635 44.68C12.1683 44.26 11.4683 44.05 10.535 44.05ZM11.41 53.85H7.49V60.15H11.41C12.39 60.15 13.1367 59.9167 13.65 59.45C14.1633 58.9833 14.42 58.3533 14.42 57.56V56.405C14.42 55.6117 14.1633 54.9933 13.65 54.55C13.1367 54.0833 12.39 53.85 11.41 53.85ZM23.1336 58.995V38.1H27.1586V58.995C27.1586 59.345 27.2403 59.6833 27.4036 60.01C27.5903 60.3133 27.9403 60.465 28.4536 60.465H29.0136V64.175H28.0336C26.7036 64.175 25.6886 63.9183 24.9886 63.405C24.2886 62.8917 23.7986 62.2383 23.5186 61.445C23.262 60.6517 23.1336 59.835 23.1336 58.995ZM46.3515 64.175C45.1615 64.175 44.2048 63.93 43.4815 63.44C42.7815 62.95 42.2682 62.3433 41.9415 61.62C40.9382 62.5533 39.9698 63.2417 39.0365 63.685C38.1032 64.1283 37.0998 64.35 36.0265 64.35C34.4632 64.35 33.3082 63.8483 32.5615 62.845C31.8382 61.8417 31.4765 60.57 31.4765 59.03C31.4765 58.0033 31.6632 57.105 32.0365 56.335C32.4332 55.5417 33.0748 54.9233 33.9615 54.48C34.8482 54.0367 36.0615 53.815 37.6015 53.815C38.2082 53.815 38.8382 53.8617 39.4915 53.955C40.1448 54.025 40.7982 54.1183 41.4515 54.235V52.17C41.4515 51.19 41.1832 50.525 40.6465 50.175C40.1098 49.8017 39.3865 49.615 38.4765 49.615C37.7765 49.615 37.0065 49.7083 36.1665 49.895C35.3498 50.0817 34.4632 50.3733 33.5065 50.77L32.3515 47.34C34.7082 46.3833 36.8432 45.905 38.7565 45.905C40.4832 45.905 41.8132 46.1967 42.7465 46.78C43.7032 47.3633 44.3682 48.1333 44.7415 49.09C45.1148 50.0467 45.3015 51.0733 45.3015 52.17V58.995C45.3015 59.345 45.3948 59.6833 45.5815 60.01C45.7915 60.3133 46.1882 60.465 46.7715 60.465H47.1565V64.175H46.3515ZM35.3615 58.96C35.3615 59.59 35.5015 60.0917 35.7815 60.465C36.0615 60.815 36.4698 60.99 37.0065 60.99C37.5432 60.99 38.1498 60.85 38.8265 60.57C39.5032 60.29 40.3782 59.6367 41.4515 58.61V57.105C40.2382 56.895 39.0482 56.79 37.8815 56.79C36.9715 56.79 36.3182 56.9767 35.9215 57.35C35.5482 57.7233 35.3615 58.26 35.3615 58.96ZM53.7307 54.095V56.16C53.7307 57.6533 53.9991 58.7733 54.5357 59.52C55.0724 60.2667 55.9357 60.64 57.1257 60.64C57.7091 60.64 58.3624 60.57 59.0857 60.43C59.8324 60.2667 60.6374 60.0217 61.5007 59.695L62.6557 63.09C61.6057 63.51 60.6141 63.825 59.6807 64.035C58.7474 64.245 57.8257 64.35 56.9157 64.35C54.5824 64.35 52.7974 63.6033 51.5607 62.11C50.3241 60.6167 49.7057 58.6333 49.7057 56.16V54.095C49.7057 51.5983 50.3241 49.615 51.5607 48.145C52.7974 46.6517 54.5824 45.905 56.9157 45.905C57.8024 45.905 58.7007 46.01 59.6107 46.22C60.5207 46.43 61.4774 46.7333 62.4807 47.13L61.3257 50.595C59.6457 49.9417 58.2457 49.615 57.1257 49.615C55.9357 49.615 55.0724 49.9883 54.5357 50.735C53.9991 51.4583 53.7307 52.5783 53.7307 54.095ZM76.9442 64L72.5692 56.615C71.8692 57.315 71.1342 58.015 70.3642 58.715V64H66.3392V38.1H70.3642V54.27C71.6942 52.9167 72.8376 51.6217 73.7942 50.385C74.7742 49.125 75.6726 47.7483 76.4892 46.255H81.1092C80.3392 47.655 79.4992 48.985 78.5892 50.245C77.6792 51.505 76.6759 52.7767 75.5792 54.06L81.8092 64H76.9442ZM99.2121 59.975V64H85.4921V40.2H89.6921V59.975H99.2121ZM106.836 42.895H102.601V38.73H106.836V42.895ZM106.731 64H102.706V46.255H106.731V64ZM117.247 60.85C118.11 60.85 118.822 60.71 119.382 60.43C119.942 60.1267 120.222 59.6833 120.222 59.1C120.222 58.5867 120.035 58.19 119.662 57.91C119.312 57.6067 118.67 57.3383 117.737 57.105L115.742 56.58C114.202 56.1833 113.058 55.5183 112.312 54.585C111.588 53.6517 111.227 52.5433 111.227 51.26C111.227 49.7433 111.752 48.4717 112.802 47.445C113.852 46.4183 115.473 45.905 117.667 45.905C118.553 45.905 119.487 46.01 120.467 46.22C121.447 46.43 122.473 46.7683 123.547 47.235L122.392 50.665C121.412 50.1983 120.525 49.8717 119.732 49.685C118.938 49.4983 118.238 49.405 117.632 49.405C115.975 49.405 115.147 49.965 115.147 51.085C115.147 51.5283 115.287 51.8783 115.567 52.135C115.87 52.3917 116.418 52.625 117.212 52.835L119.207 53.36C120.91 53.8033 122.147 54.48 122.917 55.39C123.71 56.3 124.107 57.4433 124.107 58.82C124.107 60.4533 123.547 61.7833 122.427 62.81C121.33 63.8367 119.592 64.35 117.212 64.35C115.182 64.35 113.047 63.8833 110.807 62.95L111.892 59.625C112.988 60.0683 113.98 60.3833 114.867 60.57C115.753 60.7567 116.547 60.85 117.247 60.85ZM138.914 63.405C138.307 63.685 137.607 63.9067 136.814 64.07C136.02 64.2567 135.215 64.35 134.399 64.35C133.045 64.35 131.96 64.07 131.144 63.51C130.327 62.95 129.732 62.1683 129.359 61.165C129.009 60.1617 128.834 59.0183 128.834 57.735V49.755H125.964V46.255H128.834V41.635H132.859V46.255H138.389V49.755H132.859V57.735C132.859 58.8083 133.057 59.555 133.454 59.975C133.874 60.3717 134.469 60.57 135.239 60.57C135.612 60.57 136.009 60.535 136.429 60.465C136.872 60.3717 137.362 60.22 137.899 60.01L138.914 63.405ZM149.682 64V40.2H157.732C160.578 40.2 162.748 40.9933 164.242 42.58C165.735 44.1667 166.482 46.5 166.482 49.58V54.585C166.482 57.6883 165.735 60.0333 164.242 61.62C162.748 63.2067 160.578 64 157.732 64H149.682ZM157.557 44.225H153.882V59.975H157.557C159.213 59.975 160.392 59.5667 161.092 58.75C161.815 57.9333 162.177 56.545 162.177 54.585V49.58C162.177 47.6433 161.815 46.2667 161.092 45.45C160.392 44.6333 159.213 44.225 157.557 44.225ZM172.035 64V40.2H179.28C181.053 40.2 182.453 40.4567 183.48 40.97C184.53 41.4833 185.277 42.2067 185.72 43.14C186.187 44.0733 186.42 45.17 186.42 46.43V47.41C186.42 49.2533 185.627 50.665 184.04 51.645C185.16 52.0883 186.012 52.73 186.595 53.57C187.178 54.41 187.47 55.4133 187.47 56.58V57.56C187.47 58.8433 187.237 59.975 186.77 60.955C186.303 61.9117 185.533 62.6583 184.46 63.195C183.387 63.7317 181.952 64 180.155 64H172.035ZM179.28 44.05H176.235V50H179.28C180.213 50 180.913 49.79 181.38 49.37C181.87 48.9267 182.115 48.3317 182.115 47.585V46.43C182.115 45.6833 181.87 45.1 181.38 44.68C180.913 44.26 180.213 44.05 179.28 44.05ZM180.155 53.85H176.235V60.15H180.155C181.135 60.15 181.882 59.9167 182.395 59.45C182.908 58.9833 183.165 58.3533 183.165 57.56V56.405C183.165 55.6117 182.908 54.9933 182.395 54.55C181.882 54.0833 181.135 53.85 180.155 53.85Z" fill="black"/>
</svg>
